<?xml version="1.0" encoding="utf-8"?>
<!-- Generator: Adobe Illustrator 24.1.1, SVG Export Plug-In . SVG Version: 6.00 Build 0)  -->
<svg version="1.1" id="Layer_1" xmlns="http://www.w3.org/2000/svg" xmlns:xlink="http://www.w3.org/1999/xlink" x="0px" y="0px"
	 viewBox="0 0 512 512" style="enable-background:new 0 0 512 512;" xml:space="preserve">
<style type="text/css">
	.st0{fill:#31C9B0;}
	.st1{fill:#E0E0E2;}
	.st2{fill:#C6C5CA;}
	.st3{fill:#898890;}
	.st4{fill:#57D0FF;}
	.st5{fill:#ACABB1;}
</style>
<g id="database_server">
	<path class="st0" d="M408,192v128c0,13.6-16.5,26-43.8,35.7c-35.5,11.3-72.3,17.7-109.5,19.2c-0.6,0-1.1,0.1-1.7,0.1
		c-11.9,0.6-24.3,1-37,1c-106,0-192-25-192-56V192c0,31,86,56,192,56S408,223,408,192z"/>
	<path class="st0" d="M408,304v128c0,13.6-16.5,26-43.8,35.7c-35.5,11.3-72.3,17.7-109.5,19.2c-0.6,0-1.1,0.1-1.7,0.1
		c-11.9,0.6-24.3,1-37,1c-106,0-192-25-192-56V304c0,31,86,56,192,56S408,335,408,304z"/>
	<path class="st0" d="M408,320v112c0,31-86,56-192,56S24,463,24,432V320c0,31,86,56,192,56S408,351,408,320z"/>
	<path class="st0" d="M304,209.8v-48c-29.1,4.3-58.6,6.3-88,6.2c-29.4,0.1-58.9-2-88-6.2v48c29.1,4.3,58.6,6.3,88,6.2
		C245.4,216.1,274.9,214,304,209.8z"/>
	<path class="st0" d="M408,80v112c0,31-86,56-192,56S24,223,24,192V80c0,31,86,56,192,56S408,111,408,80z"/>
	<path class="st0" d="M200,247.8c-5.3,0.2-10.6,0.2-16,0.2c-66.8,0-125.6-9.9-160-25.1V192C24,221.4,101.4,245.4,200,247.8z"/>
	<path class="st0" d="M408,192v128c0,1-0.1,1.9-0.2,2.9c-0.1,0.7-0.3,1.5-0.6,2.2c-0.2,0.6-0.3,1.1-0.6,1.7c-0.2,0.6-0.5,1-0.7,1.6
		c-0.6,1.1-1.2,2.2-2,3.2c-0.5,0.8-1.2,1.6-1.8,2.2c-3.9,4.3-8.5,7.9-13.5,10.8c-1.2,0.7-2.4,1.4-3.8,2.2c-1.8,1-3.7,1.8-5.6,2.7
		c-1,0.6-2.1,1.1-3.2,1.6V222.9C396.2,214.1,408,203.5,408,192z"/>
	<path class="st0" d="M408,320v112c0,31-86,56-192,56c-5.4,0-10.7-0.1-16-0.2c98.6-2.3,176-26.4,176-55.8v-81.1
		c1.1-0.5,2.2-1,3.2-1.4c1.9-0.9,3.8-1.8,5.6-2.7c1.4-0.7,2.6-1.4,3.8-2.2c5.1-2.9,9.6-6.5,13.5-10.8c0.7-0.7,1.3-1.4,1.8-2.2
		c0.8-1,1.4-2.1,2-3.2c0.2-0.6,0.5-1,0.7-1.6c0.2-0.5,0.4-1.1,0.6-1.7c0.2-0.7,0.4-1.4,0.6-2.2C407.9,321.9,408,321,408,320z"/>
	<path class="st0" d="M376,110.9v112c20.2-8.8,32-19.4,32-30.9V80C408,91.5,396.2,102.1,376,110.9z"/>
	<path class="st0" d="M24,192v30.9c34.4,15.2,93.2,25.1,160,25.1c5.4,0,10.7-0.1,16-0.2C101.4,245.4,24,221.4,24,192z M128,161.8
		v3.8c17.7,1.5,36.5,2.4,56,2.4c5.4,0,10.7-0.1,16-0.2C175.9,167.3,151.8,165.3,128,161.8z"/>
	<ellipse class="st0" cx="216" cy="80" rx="192" ry="56"/>
	<path class="st0" d="M408,80c0,31-86,56-192,56c-5.4,0-10.7-0.1-16-0.2c98.6-2.3,176-26.4,176-55.8s-77.4-53.4-176-55.8
		c5.3-0.2,10.6-0.2,16-0.2C322,24,408,49,408,80z"/>
	<path class="st1" d="M304,161.8v48c-29.1,4.3-58.6,6.3-88,6.2c-29.4,0.1-58.9-2-88-6.2v-48c29.1,4.3,58.6,6.3,88,6.2
		C245.4,168.1,274.9,166,304,161.8z"/>
	<path class="st2" d="M304,281.8v48c-29.1,4.3-58.6,6.3-88,6.2c-29.4,0.1-58.9-2-88-6.2v-48c29.1,4.3,58.6,6.3,88,6.2
		C245.4,288.1,274.9,286,304,281.8z"/>
	<path class="st3" d="M304,401.8v48c-29.1,4.3-58.6,6.3-88,6.2c-29.4,0.1-58.9-2-88-6.2v-48c29.1,4.3,58.6,6.3,88,6.2
		C245.4,408.1,274.9,406,304,401.8z"/>
	<path class="st4" d="M488,341.5v21c0,7.8-5.7,14.5-13.4,15.8l-13.8,2.3c-5.5,0.8-10.1,4.5-12.1,9.7c-0.4,1-0.9,2.1-1.3,3.1
		c-2.2,5.1-1.6,10.9,1.7,15.4l8.2,11.4c4.6,6.4,3.8,15.1-1.8,20.6l-14.7,14.7c-5.5,5.6-14.3,6.3-20.6,1.8l-11.4-8.2
		c-4.5-3.2-10.4-3.9-15.4-1.7c-1,0.4-2.1,0.9-3.1,1.3c-5.2,2-8.8,6.6-9.7,12.1l-2.3,13.8c-1.3,7.7-8,13.3-15.8,13.4h-21
		c-6.6,0-12.5-4.1-14.9-10.2c-0.4-1-0.7-2-0.9-3.1l-2.3-13.8c-0.8-5.5-4.5-10.1-9.7-12.1c-1-0.4-2.1-0.9-3.1-1.3
		c-5.1-2.2-10.9-1.6-15.4,1.7l-11.4,8.2c-6.4,4.6-15.1,3.8-20.6-1.8l-1.1-1.1H262l-13.5-13.6c-5.6-5.5-6.3-14.3-1.8-20.6l8.2-11.4
		c0.5-0.6,0.9-1.3,1.2-2c2.2-4.2,2.4-9.1,0.5-13.4c-0.4-1-0.9-2.1-1.3-3.1c-2-5.2-6.6-8.8-12.1-9.7l-13.8-2.3
		c-2.1-0.3-4.1-1.1-5.9-2.3c-4.6-2.9-7.4-8-7.4-13.4v-21c0-1.9,0.3-3.8,1-5.5c2-5.4,6.7-9.3,12.3-10.2l13.8-2.3
		c5.5-0.8,10.1-4.5,12.1-9.7c0.4-1,0.9-2.1,1.3-3.1c2.2-5.1,1.6-10.9-1.7-15.4l-5.8-8l-2.4-3.4c-4.6-6.4-3.8-15.1,1.8-20.6
		l14.7-14.7c0.9-0.9,2-1.7,3.1-2.4h0.1c5.4-3.3,12.3-3.1,17.4,0.6l11.4,8.2c4.5,3.2,10.4,3.9,15.4,1.7c1-0.4,2.1-0.9,3.1-1.3
		c5.2-2,8.8-6.6,9.7-12.1l2.3-13.8c1.3-7.7,8-13.3,15.8-13.4h21c7.8,0.1,14.4,5.7,15.8,13.4l2.3,13.8c0.8,5.5,4.5,10.1,9.7,12.1
		c1,0.4,2.1,0.9,3.1,1.3c4.8,2.1,10.3,1.6,14.6-1.2c0.3-0.1,0.5-0.3,0.8-0.5l11.4-8.2c6.4-4.6,15.1-3.8,20.6,1.8l14.7,14.7
		c5.6,5.5,6.3,14.3,1.8,20.6l-8.2,11.4c-3.2,4.5-3.9,10.4-1.7,15.4c0.4,1,0.9,2.1,1.3,3.1c2,5.2,6.6,8.8,12.1,9.7l13.8,2.3
		C482.3,327.1,488,333.7,488,341.5z"/>
	<circle class="st2" cx="352" cy="352" r="64"/>
	<path class="st5" d="M416,352c0,35.3-28.7,64-64,64c-5.4,0-10.8-0.7-16-2c34.2-8.9,54.8-43.8,46-78c-5.8-22.5-23.4-40.1-46-46
		c5.2-1.3,10.6-2,16-2C387.3,288,416,316.7,416,352z"/>
	<path d="M476,317.9l-13.8-2.3c-2.7-0.4-5-2.2-6-4.7c-0.5-1.1-0.9-2.3-1.4-3.4c-1-2.5-0.7-5.4,0.9-7.6l8.1-11.4
		c6.9-9.5,5.8-22.6-2.6-30.9l-14.8-14.8c-8.1-8.1-20.9-9.3-30.4-2.8V80c0-41.6-103-64-200-64S16,38.4,16,80v352
		c0,41.6,103,64,200,64c35.7,0.2,71.4-2.9,106.6-9.3c4.5,5.9,11.5,9.3,18.9,9.3h20.9c11.7,0,21.8-8.5,23.7-20.1l2.3-13.8
		c0.4-2.7,2.2-5,4.7-6c1.2-0.5,2.3-0.9,3.4-1.4c2.5-1,5.4-0.7,7.6,0.9l11.4,8.1c9.5,6.9,22.6,5.8,30.9-2.6l14.8-14.8
		c8.3-8.3,9.4-21.4,2.6-30.9l-8.1-11.4c-1.6-2.2-1.9-5.1-0.9-7.6c0.5-1.1,1-2.3,1.4-3.4c1-2.5,3.3-4.3,6-4.7l13.8-2.3
		c11.6-1.9,20.1-11.9,20.1-23.7v-20.9C496,329.8,487.5,319.8,476,317.9z M400,249.8c-1.2,0.1-2.4-0.1-3.4-0.6
		c-1.1-0.5-2.3-1-3.4-1.4c-2.5-1-4.3-3.3-4.7-6l-2.3-13.8c-0.1-0.3-0.2-0.6-0.3-1c5-2.4,9.7-5.3,14.1-8.6V249.8z M216,32
		c114,0,184,28,184,48s-70,48-184,48S32,100,32,80S102,32,216,32z M32,106.3C64.6,130.9,142,144,216,144s151.4-13.1,184-37.7V192
		c0,6.7-8.3,14.5-22.5,21.4c-4.3-3.5-9.6-5.4-15.1-5.4h-20.9c-11.7,0-21.8,8.5-23.7,20.1l-2.3,13.8c-0.4,2.7-2.2,5-4.7,6
		c-1.2,0.5-2.3,0.9-3.4,1.4c-2.5,1-5.4,0.7-7.6-0.9l-11.4-8.1c-7.2-5.1-16.5-5.9-24.4-2c-15.3,1.2-31.5,1.8-48.1,1.8
		c-114,0-184-28-184-48V106.3z M212.3,327.9c-25.5-0.1-51-1.8-76.3-5.1V291c26.5,3.4,53.3,5.1,80,5c9.1,0,18.7-0.2,29.2-0.6l3.2,4.5
		c1.6,2.2,1.9,5.1,0.9,7.6c-0.5,1.1-1,2.3-1.4,3.4c-1,2.5-3.3,4.3-6,4.7l-13.8,2.3C221.7,319,216,322.6,212.3,327.9z M32,218.3
		C64.6,242.9,142,256,216,256c9.9,0,19.6-0.2,29-0.6l-2.2,2.2c-5.8,5.8-8.2,14.1-6.4,22.1c-7.1,0.2-13.9,0.3-20.4,0.3
		c-29,0.1-58.1-2-86.8-6.2c-4.4-0.7-8.4,2.3-9.1,6.7c-0.1,0.4-0.1,0.8-0.1,1.2v48c0,4,2.9,7.3,6.8,7.9c26.9,3.9,54,6,81.2,6.2v18.6
		c0,1.8,0.3,3.7,0.7,5.4C99.1,366.7,32,339.6,32,320V218.3z M32,432v-85.7C64.6,370.9,142,384,216,384c1.8,0,3.7,0,5.5-0.1
		c2.1,1,4.3,1.8,6.6,2.2l13.8,2.3c2.7,0.4,5,2.2,6,4.7c0.5,1.1,0.9,2.3,1.4,3.4c0.3,0.8,0.5,1.7,0.5,2.5
		c-10.9,0.6-22.2,0.9-33.8,0.9c-29,0.1-58.1-2-86.8-6.2c-4.4-0.7-8.4,2.3-9.1,6.7c-0.1,0.4-0.1,0.8-0.1,1.2v48c0,4,2.9,7.3,6.8,7.9
		c29.5,4.3,59.4,6.4,89.2,6.3c14.6,0,29.2-0.5,43.2-1.4c8.3,7.1,20.4,7.6,29.3,1.2l11.4-8.1c2.2-1.6,5.1-1.9,7.6-0.9
		c1.1,0.5,2.3,1,3.4,1.4c2.5,1,4.3,3.3,4.7,6l1.5,9.3c-33.4,5.9-67.3,8.8-101.2,8.6C102,480,32,452,32,432z M242.8,446.4l0.9,0.9
		c-36,1.6-72,0.1-107.7-4.5V411c26.5,3.4,53.3,5.1,80,5c8.2,0,16.3-0.2,24.2-0.5C233.4,425.1,234.5,438.2,242.8,446.4L242.8,446.4z
		 M480,362.4c0,3.9-2.8,7.2-6.7,7.9l-13.8,2.3c-8.2,1.4-15.1,6.9-18.2,14.6c-0.4,1-0.8,2-1.2,2.9c-3.2,7.7-2.3,16.4,2.6,23.2
		l8.1,11.4c2.3,3.2,1.9,7.5-0.8,10.3l-14.8,14.8c-2.8,2.8-7.1,3.1-10.3,0.9l-11.4-8.1c-6.8-4.8-15.5-5.8-23.2-2.6
		c-1,0.4-2,0.8-2.9,1.2c-7.7,3.1-13.3,10-14.6,18.2l-2.3,13.8c-0.6,3.9-4,6.7-7.9,6.7h-20.9c-3.9,0-7.2-2.8-7.9-6.7l-2.3-13.8
		c-1.4-8.2-6.9-15.1-14.6-18.2c-1-0.4-2-0.8-2.9-1.2c-2.9-1.3-6.1-1.9-9.3-1.9c-5,0-9.9,1.6-13.9,4.5l-11.4,8.1
		c-3.2,2.3-7.5,1.9-10.3-0.9l-14.8-14.8c-2.8-2.8-3.1-7.1-0.8-10.3l8.1-11.4c4.8-6.8,5.8-15.5,2.6-23.2c-0.4-1-0.8-1.9-1.2-2.9
		c-3.1-7.7-10-13.3-18.2-14.6l-13.8-2.3c-3.9-0.6-6.7-4-6.7-7.9v-20.9c0-3.9,2.8-7.2,6.7-7.9l13.8-2.3c8.2-1.4,15.1-6.9,18.2-14.6
		c0.4-1,0.8-2,1.2-2.9c3.2-7.7,2.3-16.4-2.6-23.2l-8.1-11.4c-2.3-3.2-1.9-7.5,0.8-10.3l14.8-14.8c2.8-2.8,7.1-3.1,10.3-0.9l11.4,8.1
		c6.8,4.8,15.6,5.8,23.2,2.6c1-0.4,2-0.8,2.9-1.2c7.7-3.1,13.3-10,14.6-18.2l2.3-13.8c0.6-3.9,4-6.7,7.9-6.7h20.9
		c3.9,0,7.2,2.8,7.9,6.7l2.3,13.8c1.4,8.2,6.9,15.1,14.6,18.2c1,0.4,2,0.8,2.9,1.2c7.7,3.2,16.4,2.3,23.2-2.6l11.4-8.1
		c3.2-2.3,7.5-1.9,10.3,0.9l14.8,14.8c2.8,2.8,3.1,7.1,0.8,10.3l-8.1,11.4c-4.8,6.8-5.8,15.5-2.6,23.2c0.4,1,0.8,1.9,1.2,2.9
		c3.1,7.7,10,13.3,18.2,14.6l13.8,2.3c3.9,0.6,6.7,4,6.7,7.9V362.4z"/>
	<path d="M352,280c-39.8,0-72,32.2-72,72s32.2,72,72,72s72-32.2,72-72C424,312.3,391.7,280,352,280z M352,408c-30.9,0-56-25.1-56-56
		s25.1-56,56-56s56,25.1,56,56C408,382.9,382.9,408,352,408z"/>
	<path d="M126.8,217.7c29.5,4.3,59.4,6.4,89.2,6.3c29.8,0.1,59.7-2,89.2-6.3c3.9-0.6,6.8-4,6.8-7.9v-48c0-4.4-3.6-8-8-8
		c-0.4,0-0.8,0-1.2,0.1c-57.6,8-116,8-173.6,0c-4.4-0.7-8.4,2.3-9.1,6.7c-0.1,0.4-0.1,0.8-0.1,1.2v48
		C120,213.7,122.9,217.1,126.8,217.7z M136,171c26.5,3.4,53.3,5.1,80,5c26.7,0.1,53.5-1.6,80-5v31.9c-53.1,6.8-106.9,6.8-160,0V171z
		"/>
</g>
</svg>
