<?xml version="1.0" encoding="iso-8859-1"?>
<!-- Generator: Adobe Illustrator 19.0.0, SVG Export Plug-In . SVG Version: 6.00 Build 0)  -->
<svg version="1.1" id="Layer_1" xmlns="http://www.w3.org/2000/svg" xmlns:xlink="http://www.w3.org/1999/xlink" x="0px" y="0px"
	 viewBox="0 0 512 512" style="enable-background:new 0 0 512 512;" xml:space="preserve">
<rect x="326.748" y="51.498" transform="matrix(-0.7071 -0.7071 0.7071 -0.7071 617.8107 468.5593)" style="fill:#EFEFEF;" width="158.397" height="109.658"/>
<path style="fill:#30C9B0;" d="M170.021,445.952L66.326,342.257c-23.708-23.708-23.708-62.147,0-85.855L272.399,50.327
	L461.95,239.878L255.877,445.952C232.169,469.66,193.729,469.66,170.021,445.952z"/>
<rect x="40.026" y="386.962" transform="matrix(-0.7071 -0.7071 0.7071 -0.7071 -118.5219 773.5693)" style="fill:#5A6B96;" width="121.849" height="48.739"/>
<g>
	<path style="fill:#231F20;" d="M508.696,115.588L396.689,3.581c-4.404-4.403-11.544-4.403-15.949,0L311.171,73.15l-30.798-30.798
		c-4.404-4.403-11.544-4.403-15.949,0L58.352,248.426c-28.067,28.068-28.067,73.737,0,101.803l0.794,0.794l-26.49,26.489
		c-4.404,4.404-4.404,11.544,0,15.949l35.106,35.106l-31.288,31.288c-4.404,4.404-4.404,11.544,0,15.949
		c2.202,2.201,5.088,3.303,7.974,3.303s5.773-1.102,7.974-3.303l31.288-31.288l35.106,35.106c2.114,2.114,4.983,3.303,7.974,3.303
		c2.991,0,5.86-1.189,7.974-3.303l26.489-26.49l0.794,0.794c13.597,13.597,31.673,21.084,50.902,21.084
		c19.228,0,37.306-7.488,50.902-21.084l206.073-206.073c4.405-4.404,4.405-11.544,0-15.949l-30.797-30.798l69.57-69.569
		C513.101,127.132,513.101,119.992,508.696,115.588z M126.789,455.699l-70.212-70.212l18.515-18.515l70.212,70.21L126.789,455.699z
		 M247.903,437.977c-9.336,9.336-21.75,14.479-34.954,14.479c-13.203,0-25.617-5.142-34.954-14.479L74.3,334.281
		c-19.274-19.274-19.274-50.632,0-69.906L272.399,66.276l173.603,173.602L247.903,437.977z M423.178,185.158l-96.059-96.059
		l61.595-61.595l96.059,96.059L423.178,185.158z"/>
	<path style="fill:#231F20;" d="M423.178,143.456c2.886,0,5.773-1.102,7.974-3.303l8.616-8.617c4.404-4.405,4.404-11.544,0-15.949
		c-4.404-4.403-11.544-4.403-15.948,0l-8.616,8.617c-4.404,4.405-4.404,11.544,0,15.949
		C417.406,142.355,420.292,143.456,423.178,143.456z"/>
	<path style="fill:#231F20;" d="M372.125,81.125c-4.404,4.404-4.405,11.543,0,15.949c2.202,2.201,5.088,3.303,7.974,3.303
		c2.886,0,5.772-1.102,7.974-3.303l8.616-8.616c4.404-4.404,4.405-11.543,0-15.949c-4.403-4.401-11.543-4.403-15.948,0
		L372.125,81.125z"/>
	<path style="fill:#231F20;" d="M356.042,226.447l-39.256,39.257l-43.726-10.536l63.893-63.892c4.404-4.404,4.404-11.544,0-15.949
		c-4.404-4.401-11.543-4.403-15.949,0l-87.805,87.804l-10.536-43.726l39.256-39.256c4.404-4.404,4.405-11.544,0-15.949
		c-4.404-4.401-11.544-4.403-15.948,0l-43.726,43.725c-2.776,2.778-3.91,6.798-2.99,10.616l15.249,63.284l-23.852,23.853
		c-14.63-7.786-33.244-5.527-45.557,6.785c-15.085,15.087-15.085,39.635,0,54.72c7.308,7.308,17.025,11.332,27.361,11.332
		s20.052-4.024,27.361-11.332c12.312-12.312,14.571-30.927,6.785-45.556l47.764-47.763l63.284,15.248
		c0.875,0.212,1.762,0.314,2.641,0.314c2.956,0,5.834-1.163,7.974-3.303l43.726-43.726c4.404-4.404,4.404-11.544,0-15.949
		C367.586,222.044,360.445,222.044,356.042,226.447z M183.865,351.234c-3.048,3.048-7.101,4.726-11.411,4.726
		c-4.311,0-8.364-1.678-11.411-4.726c-6.293-6.293-6.293-16.53,0-22.823c3.147-3.146,7.279-4.719,11.412-4.719
		c4.132,0,8.266,1.573,11.411,4.719C190.158,334.703,190.158,344.943,183.865,351.234z"/>
	<path style="fill:#231F20;" d="M4.808,490.964l-1.503,1.503c-4.405,4.403-4.406,11.543-0.002,15.948
		c2.202,2.204,5.088,3.305,7.975,3.305c2.886,0,5.771-1.101,7.973-3.302l1.503-1.503c4.405-4.403,4.406-11.543,0.002-15.948
		C16.352,486.561,9.211,486.559,4.808,490.964z"/>
</g>
<g>
</g>
<g>
</g>
<g>
</g>
<g>
</g>
<g>
</g>
<g>
</g>
<g>
</g>
<g>
</g>
<g>
</g>
<g>
</g>
<g>
</g>
<g>
</g>
<g>
</g>
<g>
</g>
<g>
</g>
</svg>
