<?xml version="1.0" encoding="utf-8"?>
<!-- Generator: Adobe Illustrator 24.1.1, SVG Export Plug-In . SVG Version: 6.00 Build 0)  -->
<svg version="1.1" id="Capa_1" xmlns="http://www.w3.org/2000/svg" xmlns:xlink="http://www.w3.org/1999/xlink" x="0px" y="0px"
	 viewBox="0 0 480 480" style="enable-background:new 0 0 480 480;" xml:space="preserve">
<style type="text/css">
	.st0{fill:#31C9B0;}
	.st1{fill:#46CCFF;}
	.st2{fill:#2AA890;}
	.st3{fill:#111527;}
</style>
<path class="st0" d="M408,464c30.9,0,56-25.1,56-56s-25.1-56-56-56H288v-16h120c22.6,0,42.8,10.5,56,26.8V208c0-30.9-25.1-56-56-56
	H195.3l19.7,19.7c15.6,15.6,15.6,41,0,56.6l-5.6,5.6c8.6,3.7,14.6,12.2,14.6,22.1c0,13.2-10.8,24-24,24h-88c-13.2,0-24-10.8-24-24
	s10.8-24,24-24h28.7l32-32l-48-48H120c-30.9,0-56,25.1-56,56v154.8c13.2-16.4,33.4-26.8,56-26.8h24v16h-24c-30.9,0-56,25.1-56,56
	s25.1,56,56,56h152v8h16v-8h16v8h16v-8h16v8h16v-8h16v8h16v-8H408z M280,288v-8v-80c0-4.4,3.6-8,8-8h29.3l29.9-22.4
	c1.4-1,3.1-1.6,4.8-1.6h48c4.4,0,8,3.6,8,8v16h24c4.4,0,8,3.6,8,8v80v8v24c0,4.4-3.6,8-8,8H288c-4.4,0-8-3.6-8-8V288z M224,336h16
	v16h-16V336z M192,336h16v16h-16V336z M120,448c-22.1,0-40-17.9-40-40s17.9-40,40-40s40,17.9,40,40S142.1,448,120,448z M160,336h16
	v16h-16V336z M216,448c-22.1,0-40-17.9-40-40s17.9-40,40-40s40,17.9,40,40S238.1,448,216,448z M256,352v-16h16v16H256z M312,448
	c-22.1,0-40-17.9-40-40s17.9-40,40-40s40,17.9,40,40S334.1,448,312,448z M368,408c0-22.1,17.9-40,40-40s40,17.9,40,40
	s-17.9,40-40,40S368,430.1,368,408z"/>
<path class="st1" d="M112,91.3L99.3,104l90.3,90.3c3.1,3.1,3.1,8.2,0,11.3L131.3,264h25.4l47-47c9.4-9.4,9.4-24.6,0-33.9L112,91.3z"
	/>
<path class="st2" d="M104,256c0,3.4,2.2,6.3,5.2,7.4l15.4-15.4H112C107.6,248,104,251.6,104,256z"/>
<circle class="st1" cx="408" cy="408" r="24"/>
<path class="st2" d="M200,248h-4.7l-16,16H200c4.4,0,8-3.6,8-8C208,251.6,204.4,248,200,248z"/>
<g>
	<circle class="st1" cx="120" cy="408" r="24"/>
	<circle class="st1" cx="216" cy="408" r="24"/>
	
		<rect x="16.1" y="55.7" transform="matrix(0.7071 -0.7071 0.7071 0.7071 -31.5045 75.9907)" class="st1" width="119.8" height="40.6"/>
	<polygon class="st1" points="392,200 392,184 360,184 360,248 392,248 	"/>
	<circle class="st1" cx="312" cy="408" r="24"/>
	<polygon class="st1" points="344,192 328,204 328,264 344,252 	"/>
	<path class="st1" d="M424,288h-24c-4.4,0-8-3.6-8-8v-16h-37.3l-29.9,22.4c-1.4,1-3.1,1.6-4.8,1.6h-24v16h128V288z"/>
	<polygon class="st1" points="424,208 408,208 408,256 408,272 424,272 	"/>
	<rect x="296" y="208" class="st1" width="16" height="64"/>
</g>
<g>
	<path class="st3" d="M408,136H179.3l-56-56l26.3-26.3c3.1-3.1,3.1-8.2,0-11.3l-40-40c-3.1-3.1-8.2-3.1-11.3,0l-96,96
		c-3.1,3.1-3.1,8.2,0,11.3l40,40c1.6,1.6,3.6,2.3,5.7,2.3c2,0,4.1-0.8,5.7-2.3L88,115.3l21.5,21.5C74.8,141.9,48,171.9,48,208v200
		c0,39.7,32.3,72,72,72h152v-8v-8H120c-30.9,0-56-25.1-56-56s25.1-56,56-56h24v-16h-24c-22.6,0-42.8,10.5-56,26.8V208
		c0-30.9,25.1-56,56-56h4.7l48,48l-32,32H112c-13.2,0-24,10.8-24,24c0,13.2,10.8,24,24,24h88c13.2,0,24-10.8,24-24
		c0-9.9-6-18.4-14.6-22.1l5.6-5.6c15.6-15.6,15.6-41,0-56.6L195.3,152H408c30.9,0,56,25.1,56,56v154.8c-13.2-16.4-33.4-26.8-56-26.8
		H288v16h120c30.9,0,56,25.1,56,56s-25.1,56-56,56h-24v8v8h24c39.7,0,72-32.3,72-72V208C480,168.3,447.7,136,408,136z M48,132.7
		L19.3,104L104,19.3L132.7,48L48,132.7z M109.3,263.4c-3-1.1-5.2-4-5.2-7.4c0-4.4,3.6-8,8-8h12.7L109.3,263.4z M200,264h-20.7l16-16
		h4.7c4.4,0,8,3.6,8,8C208,260.4,204.4,264,200,264z M203.7,183c9.4,9.4,9.4,24.6,0,33.9l-47,47h-25.4l58.3-58.3
		c3.1-3.1,3.1-8.2,0-11.3L99.3,104L112,91.3L203.7,183z"/>
	<path class="st3" d="M120,368c-22.1,0-40,17.9-40,40s17.9,40,40,40s40-17.9,40-40S142.1,368,120,368z M120,432
		c-13.2,0-24-10.8-24-24s10.8-24,24-24s24,10.8,24,24S133.2,432,120,432z"/>
	<path class="st3" d="M216,368c-22.1,0-40,17.9-40,40s17.9,40,40,40s40-17.9,40-40S238.1,368,216,368z M216,432
		c-13.2,0-24-10.8-24-24s10.8-24,24-24s24,10.8,24,24S229.2,432,216,432z"/>
	<path class="st3" d="M312,368c-22.1,0-40,17.9-40,40s17.9,40,40,40s40-17.9,40-40S334.1,368,312,368z M312,432
		c-13.2,0-24-10.8-24-24s10.8-24,24-24s24,10.8,24,24S325.2,432,312,432z"/>
	<path class="st3" d="M448,408c0-22.1-17.9-40-40-40s-40,17.9-40,40s17.9,40,40,40S448,430.1,448,408z M384,408
		c0-13.2,10.8-24,24-24s24,10.8,24,24s-10.8,24-24,24S384,421.2,384,408z"/>
	<rect x="160" y="336" class="st3" width="16" height="16"/>
	<rect x="192" y="336" class="st3" width="16" height="16"/>
	<rect x="224" y="336" class="st3" width="16" height="16"/>
	<rect x="256" y="336" class="st3" width="16" height="16"/>
	<polygon class="st3" points="352,464 352,472 352,480 368,480 368,472 368,464 	"/>
	<polygon class="st3" points="320,464 320,472 320,480 336,480 336,472 336,464 	"/>
	<polygon class="st3" points="288,464 288,472 288,480 304,480 304,472 304,464 	"/>
	<path class="st3" d="M288,320h144c4.4,0,8-3.6,8-8v-24v-8v-80c0-4.4-3.6-8-8-8h-24v-16c0-4.4-3.6-8-8-8h-48c-1.7,0-3.4,0.6-4.8,1.6
		L317.3,192H288c-4.4,0-8,3.6-8,8v80v8v24C280,316.4,283.6,320,288,320z M408,256v-48h16v64h-16V256z M360,184h32v16v48h-32V184z
		 M328,204l16-12v60l-16,12V204z M296,208h16v64h-16V208z M296,288h24c1.7,0,3.4-0.6,4.8-1.6l29.9-22.4H392v16c0,4.4,3.6,8,8,8h24
		v16H296V288z"/>
</g>
</svg>
