<?xml version="1.0" encoding="utf-8"?>
<!-- Generator: Adobe Illustrator 24.1.1, SVG Export Plug-In . SVG Version: 6.00 Build 0)  -->
<svg version="1.1" id="Layer_1" xmlns="http://www.w3.org/2000/svg" xmlns:xlink="http://www.w3.org/1999/xlink" x="0px" y="0px"
	 viewBox="0 0 392.8 392.8" style="enable-background:new 0 0 392.8 392.8;" xml:space="preserve">
<style type="text/css">
	.st0{fill:#FFFFFF;}
	.st1{fill:#32C9B0;}
	.st2{fill:#070411;}
</style>
<g>
	<path class="st0" d="M144.8,222.7c-0.8-8.7-1.2-17.5-1.2-26.4s0.5-17.7,1.2-26.4H103c-2.4,8.4-3.7,17.3-3.7,26.4s1.4,17.9,3.7,26.4
		L144.8,222.7L144.8,222.7z"/>
	<path class="st0" d="M170,148.2h52.6c-6.3-30.5-17.8-49-26.4-49l0,0l0,0C187.9,99.2,176.3,117.7,170,148.2z"/>
	<path class="st0" d="M147.7,148.2c2.8-15.9,7.2-30.4,13.1-42.2c-20.6,8.1-37.8,23.1-48.7,42.2H147.7L147.7,148.2z"/>
	<path class="st0" d="M165.4,196.4c0,9.4,0.5,18.1,1.4,26.4H226c0.8-8.3,1.4-17,1.4-26.4c0-9.4-0.5-18.1-1.4-26.4h-59.2
		C165.9,178.3,165.4,187,165.4,196.4z"/>
	<path class="st0" d="M280.6,148.2c-10.9-19-28.1-34-48.7-42.2c5.8,11.8,10.2,26.2,13.1,42.2H280.6L280.6,148.2z"/>
	<path class="st0" d="M247.9,170c0.8,8.7,1.2,17.5,1.2,26.4c0,8.8-0.4,17.7-1.2,26.4h41.8c2.4-8.4,3.7-17.3,3.7-26.4
		s-1.4-17.9-3.7-26.4H247.9z"/>
	<path class="st0" d="M160.8,286.7c-5.8-11.6-10.2-26.2-13.1-42.1h-35.6C123,263.5,140.2,278.5,160.8,286.7z"/>
	<path class="st0" d="M244.9,244.5c-2.8,15.9-7.2,30.4-13.1,42.2c20.6-8.1,37.9-23.1,48.7-42.2L244.9,244.5L244.9,244.5z"/>
	<path class="st0" d="M222.7,244.5h-52.6c6.3,30.5,17.8,49,26.4,49C204.8,293.5,216.4,275,222.7,244.5z"/>
</g>
<path class="st1" d="M333.7,164.2c-3.5-15-9.4-29.2-17.5-42.3c-2.7-4.3-2-9.9,1.6-13.4l18.7-18.7l-33.6-33.6L284.2,75
	c-3.6,3.6-9.2,4.3-13.4,1.6c-13.1-8.1-27.3-14-42.3-17.5c-4.9-1.2-8.4-5.6-8.4-10.6V21.9h-47.5v26.5c0,5.1-3.5,9.5-8.4,10.6
	c-15,3.5-29.2,9.4-42.3,17.5c-4.3,2.7-9.9,2-13.4-1.6L89.8,56.3L56.2,89.8l18.7,18.7c3.6,3.6,4.3,9.2,1.6,13.4
	c-8.1,13.1-14,27.3-17.5,42.3c-1.2,4.9-5.6,8.4-10.6,8.4H21.9v47.5h26.5c5.1,0,9.5,3.5,10.6,8.4c3.5,15,9.4,29.2,17.5,42.3
	c2.7,4.3,2,9.9-1.6,13.4l-18.7,18.7l33.6,33.6l18.7-18.7c3.6-3.6,9.2-4.3,13.4-1.6c13.1,8.1,27.3,14,42.3,17.5
	c4.9,1.2,8.4,5.6,8.4,10.6v26.5H220v-26.5c0-5.1,3.5-9.5,8.4-10.6c15-3.5,29.2-9.4,42.3-17.5c4.3-2.7,9.9-2,13.4,1.6l18.7,18.7
	l33.6-33.6l-18.7-18.7c-3.6-3.6-4.3-9.2-1.6-13.4c8.1-13.1,14-27.3,17.5-42.3c1.2-4.9,5.6-8.4,10.6-8.4h26.5v-47.5h-26.5
	C339.3,172.6,334.9,169.1,333.7,164.2z M196.3,315.3c-65.6,0-118.9-53.3-118.9-118.9S130.7,77.4,196.3,77.4s118.9,53.3,118.9,118.9
	S261.9,315.3,196.3,315.3z"/>
<g>
	<path class="st2" d="M196.3,77.4c-65.6,0-118.9,53.3-118.9,118.9s53.3,118.9,118.9,118.9S315.3,262,315.3,196.4
		S261.9,77.4,196.3,77.4z M280.6,148.2h-35.6c-2.8-15.9-7.2-30.4-13.1-42.2C252.4,114.2,269.6,129.1,280.6,148.2z M227.3,196.4
		c0,9.4-0.5,18.1-1.4,26.4h-59.2c-0.8-8.3-1.4-17-1.4-26.4c0-9.4,0.5-18.1,1.4-26.4h59.2C226.8,178.3,227.3,187,227.3,196.4z
		 M196.3,99.2c8.5,0,20,18.4,26.4,49h-52.6C176.3,117.7,187.9,99.2,196.3,99.2L196.3,99.2L196.3,99.2z M160.8,106.1
		c-5.9,11.8-10.3,26.2-13.1,42.2h-35.6C123.1,129.1,140.2,114.2,160.8,106.1z M102.9,170h41.8c-0.8,8.7-1.2,17.5-1.2,26.4
		c0,8.9,0.5,17.7,1.2,26.4h-41.8c-2.4-8.4-3.7-17.3-3.7-26.4C99.2,187.2,100.6,178.5,102.9,170z M147.7,244.5
		c2.8,15.9,7.2,30.4,13.1,42.1c-20.6-8.1-37.8-23.1-48.7-42.1H147.7L147.7,244.5z M170,244.5h52.6c-6.3,30.5-17.8,49-26.4,49
		C187.9,293.5,176.3,275,170,244.5z M231.8,286.7c5.9-11.8,10.2-26.2,13.1-42.2h35.6C269.6,263.6,252.4,278.6,231.8,286.7z
		 M289.7,222.7h-41.8c0.8-8.7,1.2-17.5,1.2-26.4s-0.5-17.7-1.2-26.4h41.8c2.4,8.4,3.7,17.3,3.7,26.4
		C293.4,205.5,292.1,214.3,289.7,222.7z"/>
	<path class="st2" d="M381.7,150.9h-29c-3.3-11.4-7.9-22.5-13.6-32.9l20.5-20.5c4.2-4.1,4.3-11.6,0-15.5l-49-49
		c-4.3-4.3-11.1-4.3-15.5,0l-20.6,20.5c-10.4-5.7-21.4-10.3-32.9-13.6V11c0-6-4.8-10.9-10.9-10.9h-69.2c-6,0-10.9,4.8-10.9,10.9v29
		c-11.4,3.3-22.5,7.9-32.9,13.6L97.4,33.1c-2-2-4.8-3.2-7.8-3.2c-2.8,0-5.6,1.2-7.8,3.2l-49,49c-4.5,4-4.2,11.1,0,15.5L53.5,118
		c-5.7,10.4-10.3,21.5-13.6,32.9h-29c-6,0-10.9,4.8-10.9,10.9v69.2c0,6,4.8,10.9,10.9,10.9h29c3.3,11.4,7.9,22.5,13.6,32.9L33,295.3
		c-5.1,4.6-4.4,10.8,0,15.5l49,49c4.1,4.1,11.4,4.1,15.5,0l20.5-20.5c10.4,5.7,21.4,10.3,32.9,13.6v29c0,6,4.8,10.9,10.9,10.9H231
		c6,0,10.9-4.8,10.9-10.9v-29c11.4-3.3,22.5-7.9,32.9-13.6l20.5,20.5c4.3,4.3,11.1,4.3,15.5,0l49-49c4.5-4.4,4.3-10.5,0-15.5
		l-20.5-20.5c5.7-10.4,10.3-21.5,13.6-32.9h29c6,0,10.9-4.8,10.9-10.9v-69.2C392.6,155.7,387.7,150.9,381.7,150.9z M370.8,220.1
		h-26.5c-5.1,0-9.5,3.5-10.6,8.4c-3.5,15-9.4,29.2-17.5,42.3c-2.7,4.3-2,9.9,1.6,13.4l18.7,18.7l-33.6,33.6l-18.7-18.7
		c-3.6-3.6-9.2-4.3-13.4-1.6c-13.1,8.1-27.3,14-42.3,17.5c-4.9,1.2-8.4,5.6-8.4,10.6v26.5h-47.5v-26.5c0-5.1-3.5-9.5-8.4-10.6
		c-15-3.5-29.2-9.4-42.3-17.5c-4.3-2.7-9.9-2-13.4,1.6l-18.7,18.7l-33.6-33.6l18.7-18.7c3.6-3.6,4.3-9.2,1.6-13.4
		c-8.1-13.1-14-27.3-17.5-42.3c-1.2-4.9-5.6-8.4-10.6-8.4H21.8v-47.5h26.5c5.1,0,9.5-3.5,10.6-8.4c3.5-15,9.4-29.2,17.5-42.3
		c2.7-4.3,2-9.9-1.6-13.4L56.2,89.8l33.6-33.6L108.4,75c3.6,3.6,9.2,4.3,13.4,1.6c13.1-8.1,27.3-14,42.3-17.5
		c4.9-1.2,8.4-5.6,8.4-10.6V21.9H220v26.5c0,5.1,3.5,9.5,8.4,10.6c15,3.5,29.2,9.4,42.3,17.5c4.3,2.7,9.9,2,13.4-1.6l18.7-18.7
		l33.6,33.6l-18.7,18.7c-3.6,3.6-4.3,9.2-1.6,13.4c8.1,13.1,14,27.3,17.5,42.3c1.2,4.9,5.6,8.4,10.6,8.4h26.5L370.8,220.1
		L370.8,220.1L370.8,220.1z"/>
</g>
</svg>
