<svg xmlns="http://www.w3.org/2000/svg" viewBox="0 0 631.14 183.7">
  <defs>
    <style>
      .cls-1 {
        isolation: isolate;
      }

      .cls-2 {
        font-size: 121.14px;
        font-family: AcuminPro-Regular, Acumin Pro;
        letter-spacing: -0.05em;
      }

      .cls-2, .cls-8 {
        fill: #666161;
      }

      .cls-3 {
        letter-spacing: -0.08em;
      }

      .cls-4 {
        letter-spacing: -0.08em;
      }

      .cls-5 {
        letter-spacing: -0.07em;
      }

      .cls-6 {
        mix-blend-mode: multiply;
      }

      .cls-7 {
        fill: #ddd;
      }

      .cls-9 {
        fill: #514e4e;
      }

      .cls-10 {
        fill: #f9f7f7;
      }

      .cls-11 {
        fill: #fff;
      }
    </style>
  </defs>
  <g class="cls-1">
    <g id="Layer_2" data-name="Layer 2">
      <g id="LOGO">
        <text class="cls-2" transform="translate(7.72 151.96) scale(1.01 1)">A<tspan class="cls-3" x="73.65" y="0">J De</tspan><tspan class="cls-4" x="263.23" y="0">n</tspan><tspan class="cls-5" x="321.98" y="0">tal</tspan></text>
        <g>
          <g class="cls-6">
            <ellipse class="cls-7" cx="500.93" cy="149.56" rx="47.14" ry="6.35"/>
          </g>
          <path class="cls-8" d="M533.68,85.66c-32.83,3.83-54.16-11-54.16-11l5.35,16.08,11.39,34.66s21.33,14.85,54.16,11c30.24-3.53,53.12-13.26,73.49-3.5L607.68,82.4C587.19,72.22,564.18,82.09,533.68,85.66Z"/>
          <g class="cls-6">
            <path class="cls-7" d="M564.75,80.55l0-.12c-9.5,1.72-19.78,3.9-31.09,5.23-32.83,3.83-54.16-11-54.16-11l5.35,16.08,11.39,34.66s21.33,14.85,54.16,11c17.91-2.09,33.23-6.35,47-7.46Z"/>
          </g>
          <path class="cls-9" d="M539.51,139.19c-26.82,0-43.64-11.47-44.44-12a2.1,2.1,0,0,1-.77-1L482.91,91.47,477.56,75.4a2,2,0,0,1,.73-2.28,2.07,2.07,0,0,1,2.41,0c.2.15,21.14,14.36,52.74,10.66,8.56-1,16.44-2.48,24.06-3.92,21.09-4,39.31-7.42,56,3.69a2,2,0,0,1,.56,2.83,2.08,2.08,0,0,1-2.86.56c-15.28-10.17-31.89-7-52.92-3.07-7.69,1.45-15.65,3-24.35,4-24.46,2.86-42.54-4.32-50.74-8.55l3.64,11,11.17,34c3.5,2.19,23.43,13.66,52.19,10.3,8.56-1,16.44-2.48,24.07-3.92,21.09-4,39.3-7.42,56,3.69a2,2,0,0,1,.56,2.83,2.07,2.07,0,0,1-2.86.56c-15.27-10.17-31.89-7-52.91-3.07-7.7,1.45-15.65,3-24.36,4A96.85,96.85,0,0,1,539.51,139.19Z"/>
          <path class="cls-9" d="M584.35,104a2,2,0,0,1-.25-4.07c1.24-.15,2.44-.28,3.59-.38a2,2,0,1,1,.37,4.06c-1.1.1-2.26.23-3.45.37A1.14,1.14,0,0,1,584.35,104Z"/>
          <path class="cls-9" d="M617.13,108.36a2,2,0,0,1-1-.25c-6-3.22-12.4-4.76-20.22-4.86a2,2,0,1,1,.05-4.08,46.75,46.75,0,0,1,22.14,5.35,2,2,0,0,1,.82,2.77A2.06,2.06,0,0,1,617.13,108.36Z"/>
          <g>
            <path class="cls-10" d="M537.28,33.71C521.66,23.37,501.4,42,501.4,42s-20.25-18.66-35.87-8.32S445,74.17,455.12,106s21.13,47.25,33.55,42.77c6.37-2.3,6.67-5.42,6.37-14.64-.63-19.37,3.18-23.26,6.36-23.26s7,3.89,6.37,23.26c-.3,9.22,0,12.34,6.36,14.64,12.43,4.48,23.44-10.91,33.56-42.77S552.9,44,537.28,33.71Z"/>
            <path class="cls-9" d="M484.48,151.6a14,14,0,0,1-6.23-1.5c-9-4.4-17.2-18.61-25.1-43.45-10.23-32.18-5.5-63.57,11.24-74.64,14.5-9.59,32,3.15,37,7.32,5.05-4.17,22.52-16.91,37-7.32,16.74,11.07,21.46,42.46,11.24,74.64-7.9,24.84-16.11,39-25.1,43.45a13.76,13.76,0,0,1-11.13.61c-7.81-2.81-8-7.38-7.72-16.62.48-14.7-1.67-19.17-3-20.53a1.68,1.68,0,0,0-2.61,0c-1.33,1.36-3.48,5.83-3,20.53.3,9.24.09,13.81-7.72,16.62A14.19,14.19,0,0,1,484.48,151.6Zm-8.4-118.95a16.7,16.7,0,0,0-9.41,2.76c-7.14,4.72-12.1,14.2-14,26.69-1.94,13-.38,28.34,4.38,43.32,7.43,23.39,15.17,37.19,23,41a9.69,9.69,0,0,0,7.9.44c5-1.79,5.31-3.56,5-12.66-.4-12.53,1-20.22,4.16-23.5a5.8,5.8,0,0,1,8.53,0c3.2,3.28,4.56,11,4.16,23.5-.3,9.1.05,10.87,5,12.66a9.69,9.69,0,0,0,7.9-.44c7.82-3.83,15.56-17.63,23-41,4.76-15,6.32-30.36,4.38-43.32-1.87-12.49-6.83-22-14-26.69C522,26.08,503,43.35,502.8,43.53l-1.39,1.28L500,43.53C499.85,43.39,488,32.65,476.08,32.65Z"/>
          </g>
          <g class="cls-6">
            <path class="cls-7" d="M497.63,113.87l3.92-5s-5.79-.91-10,2.29-5.84,3.63-5.22,23c.29,8.81,0,12-5.55,14.33a11.73,11.73,0,0,0,9.07.31c6.36-2.29,6.66-5.42,6.36-14.64A137.43,137.43,0,0,1,497.63,113.87Z"/>
            <path class="cls-7" d="M496.25,45.22a16.48,16.48,0,0,1,4.61-4.89c-5.77-4-18.94-11.49-28.35-9.18C483.37,33.45,496.25,45.22,496.25,45.22Z"/>
            <path class="cls-7" d="M538.44,33.7c-5-3.32-10.53-3.64-15.69-2.55a18.59,18.59,0,0,1,5.81,2.55C544.19,44,549.1,74.17,539,106c-7.59,23.88-15.68,38.51-24.49,42.45.26.1.52.21.81.31,12.42,4.48,23.43-10.9,33.56-42.76S554.07,44,538.44,33.7Z"/>
          </g>
          <path class="cls-9" d="M484.48,151.6a14,14,0,0,1-6.23-1.5c-9-4.4-17.2-18.61-25.1-43.45-10.23-32.18-5.5-63.57,11.24-74.64,14.5-9.59,32,3.15,37,7.32,5.05-4.17,22.52-16.91,37-7.32,16.74,11.07,21.46,42.46,11.24,74.64-7.9,24.84-16.11,39-25.1,43.45a13.76,13.76,0,0,1-11.13.61c-7.81-2.81-8-7.38-7.72-16.62.48-14.7-1.67-19.17-3-20.53a1.68,1.68,0,0,0-2.61,0c-1.33,1.36-3.48,5.83-3,20.53.3,9.24.09,13.81-7.72,16.62A14.19,14.19,0,0,1,484.48,151.6Zm-8.4-118.95a16.7,16.7,0,0,0-9.41,2.76c-7.14,4.72-12.1,14.2-14,26.69-1.94,13-.38,28.34,4.38,43.32,7.43,23.39,15.17,37.19,23,41a9.69,9.69,0,0,0,7.9.44c5-1.79,5.31-3.56,5-12.66-.4-12.53,1-20.22,4.16-23.5a5.8,5.8,0,0,1,8.53,0c3.2,3.28,4.56,11,4.16,23.5-.3,9.1.05,10.87,5,12.66a9.69,9.69,0,0,0,7.9-.44c7.82-3.83,15.56-17.63,23-41,4.76-15,6.32-30.36,4.38-43.32-1.87-12.49-6.83-22-14-26.69C522,26.08,503,43.35,502.8,43.53l-1.39,1.28L500,43.53C499.85,43.39,488,32.65,476.08,32.65Z"/>
          <g>
            <path class="cls-11" d="M501.4,42c-6.17,5.35-12.53,9.18-21.6,9.37"/>
            <path class="cls-9" d="M479.8,53.39a2,2,0,1,1,0-4.08c9.07-.19,15.11-4.38,20.29-8.87a2.07,2.07,0,0,1,2.9.19,2,2,0,0,1-.19,2.88c-5.49,4.76-12.5,9.66-22.91,9.88Z"/>
          </g>
          <g>
            <g>
              <line class="cls-8" x1="478.29" y1="19.06" x2="473.56" y2="12.46"/>
              <path class="cls-9" d="M478.3,21.1a2.05,2.05,0,0,1-1.68-.86l-4.73-6.6a2,2,0,0,1,.48-2.84,2.06,2.06,0,0,1,2.87.48L480,17.87a2,2,0,0,1-1.67,3.23Z"/>
            </g>
            <g>
              <line class="cls-8" x1="524.52" y1="19.06" x2="529.24" y2="12.46"/>
              <path class="cls-9" d="M524.51,21.1a2,2,0,0,1-1.67-3.23l4.73-6.59a2.06,2.06,0,0,1,2.87-.48,2,2,0,0,1,.48,2.84l-4.73,6.6A2.05,2.05,0,0,1,524.51,21.1Z"/>
            </g>
            <g>
              <line class="cls-8" x1="502.44" y1="14.09" x2="502.44" y2="2.04"/>
              <path class="cls-9" d="M502.44,16.13a2,2,0,0,1-2.06-2V2a2.06,2.06,0,0,1,4.12,0V14.09A2,2,0,0,1,502.44,16.13Z"/>
            </g>
          </g>
          <g>
            <g>
              <g>
                <g>
                  <path class="cls-11" d="M485.78,74.07A19.06,19.06,0,0,0,472,74.5"/>
                  <path class="cls-9" d="M472,76.54a2,2,0,0,1-.82-3.91,21,21,0,0,1,15.37-.44,2,2,0,0,1,1.11,2.67A2.06,2.06,0,0,1,485,76h0a17.19,17.19,0,0,0-12.15.41A2,2,0,0,1,472,76.54Z"/>
                </g>
                <path class="cls-9" d="M484.12,73.57a12.74,12.74,0,0,0,.12-1.8c0-5.08-2.39-11.14-5.34-11.14s-5.34,6.06-5.34,11.14a13.43,13.43,0,0,0,.17,2.1A19.26,19.26,0,0,1,484.12,73.57Z"/>
              </g>
              <g>
                <g>
                  <path class="cls-11" d="M530.79,74.07A19.07,19.07,0,0,0,517,74.5"/>
                  <path class="cls-9" d="M517,76.54a2,2,0,0,1-.83-3.91,21,21,0,0,1,15.37-.44,2,2,0,0,1,1.12,2.67A2.07,2.07,0,0,1,530,76a17.17,17.17,0,0,0-12.14.41A2,2,0,0,1,517,76.54Z"/>
                </g>
                <path class="cls-9" d="M529.13,73.57a14.5,14.5,0,0,0,.11-1.8c0-5.08-2.38-11.14-5.33-11.14s-5.34,6.06-5.34,11.14a12.32,12.32,0,0,0,.17,2.1A19.26,19.26,0,0,1,529.13,73.57Z"/>
              </g>
            </g>
            <path class="cls-9" d="M501.16,92.7A18.86,18.86,0,0,1,492,90.27a2,2,0,0,1-.67-2.81,2.06,2.06,0,0,1,2.82-.67c.28.17,6.83,4,13.4,0a2.07,2.07,0,0,1,2.83.67,2,2,0,0,1-.68,2.81A16.2,16.2,0,0,1,501.16,92.7Z"/>
            <path class="cls-9" d="M498,100.76a2.07,2.07,0,0,1-1.75-1A2,2,0,0,1,496.9,97a7.82,7.82,0,0,1,7.94,0,2,2,0,0,1,.67,2.81,2.06,2.06,0,0,1-2.81.67,3.76,3.76,0,0,0-3.64,0A2.12,2.12,0,0,1,498,100.76Z"/>
          </g>
          <g>
            <g>
              <path class="cls-10" d="M443.52,82l-12,20.61a5.66,5.66,0,0,0,2,7.69l17.19,10.38.18-7.55-7.11-5.51a5.64,5.64,0,0,1-1.41-7.36l8.34-14Z"/>
              <path class="cls-9" d="M450.67,122.72a2.06,2.06,0,0,1-1.07-.3L432.41,112a7.72,7.72,0,0,1-2.69-10.45l12-20.62a2.08,2.08,0,0,1,2.84-.73l7.14,4.23a2,2,0,0,1,.72,2.79l-8.34,14A3.63,3.63,0,0,0,445,106l7.12,5.51a2,2,0,0,1,.79,1.66l-.18,7.55a2.06,2.06,0,0,1-1.07,1.75A2.17,2.17,0,0,1,450.67,122.72ZM444.26,84.8l-11,18.82a3.64,3.64,0,0,0,1.26,4.93l14.15,8.54.07-3-6.3-4.88a7.7,7.7,0,0,1-1.91-10l7.3-12.28Z"/>
            </g>
            <g>
              <path class="cls-8" d="M450.67,124.27l6.58-1.43s1.85,8.37,11.19,7.2,5.6-12.25,2.77-15.8l1.65-1.41a1.17,1.17,0,0,0-.66-2,13.41,13.41,0,0,1-5-1.44c-3.67-2-9.46,1.09-9.46,1.09L451,105.89Z"/>
              <path class="cls-9" d="M466.7,132.19a11.41,11.41,0,0,1-10.81-7l-4.78,1a2.05,2.05,0,0,1-1.74-.42,2,2,0,0,1-.76-1.61l.3-18.38a2.06,2.06,0,0,1,3.21-1.66l5.81,3.89c2.14-.93,6.72-2.46,10.27-.55a11.18,11.18,0,0,0,4.21,1.21,3.23,3.23,0,0,1,2.77,2.23,3.2,3.2,0,0,1-1,3.4l-.27.23c1.92,3.32,3.47,8.58,1.84,12.57-.8,1.92-2.67,4.33-7.07,4.88A15.59,15.59,0,0,1,466.7,132.19Zm-9.45-11.39a2.08,2.08,0,0,1,1.11.32,2.05,2.05,0,0,1,.91,1.28c.15.66,1.73,6.52,8.91,5.61,2-.25,3.22-1,3.77-2.38,1.19-2.88-.6-7.92-2.36-10.12a2,2,0,0,1,.27-2.82l.21-.18a14.11,14.11,0,0,1-3.84-1.38c-2.18-1.18-6.26.44-7.51,1.1a2.07,2.07,0,0,1-2.12-.11L453,109.69l-.2,12,4-.88A2.25,2.25,0,0,1,457.25,120.8Z"/>
            </g>
            <g>
              <path class="cls-10" d="M443.47,107.39a12.27,12.27,0,0,0-4.82-2.14"/>
              <path class="cls-9" d="M443.47,109.43a2.11,2.11,0,0,1-1.28-.44,10.37,10.37,0,0,0-3.9-1.73,2,2,0,0,1-1.67-2.36,2.06,2.06,0,0,1,2.39-1.66,14.17,14.17,0,0,1,5.73,2.55,2,2,0,0,1,.34,2.86A2.07,2.07,0,0,1,443.47,109.43Z"/>
            </g>
          </g>
          <g>
            <g>
              <path class="cls-10" d="M562,82l12,20.61a5.65,5.65,0,0,1-2,7.69l-17.19,10.38-.18-7.55,7.11-5.51a5.64,5.64,0,0,0,1.41-7.36l-8.34-14Z"/>
              <path class="cls-9" d="M554.88,122.72a2.17,2.17,0,0,1-1-.25,2.06,2.06,0,0,1-1.07-1.75l-.18-7.55a2,2,0,0,1,.79-1.66l7.11-5.51a3.62,3.62,0,0,0,.91-4.71l-8.34-14a2,2,0,0,1,.71-2.79L561,80.23a2.05,2.05,0,0,1,1.57-.22,2.08,2.08,0,0,1,1.27.95l12,20.62A7.72,7.72,0,0,1,573.14,112L556,122.42A2.06,2.06,0,0,1,554.88,122.72Zm1.9-8.62.07,3L571,108.55a3.65,3.65,0,0,0,1.26-4.93l-11-18.82-3.6,2.13L565,99.21a7.7,7.7,0,0,1-1.91,10Z"/>
            </g>
            <g>
              <path class="cls-8" d="M554.88,124.27l-6.59-1.43s-1.84,8.37-11.18,7.2-5.6-12.25-2.77-15.8l-1.65-1.41a1.17,1.17,0,0,1,.66-2,13.46,13.46,0,0,0,5-1.44c3.67-2,9.46,1.09,9.46,1.09l6.78-4.54Z"/>
              <path class="cls-9" d="M538.85,132.19a15.59,15.59,0,0,1-2-.13c-4.41-.55-6.28-3-7.07-4.89-1.64-4-.09-9.24,1.84-12.56l-.27-.23a3.2,3.2,0,0,1-1-3.4,3.23,3.23,0,0,1,2.77-2.23,11.18,11.18,0,0,0,4.21-1.21c3.54-1.91,8.12-.38,10.27.55l5.81-3.89a2.06,2.06,0,0,1,3.21,1.66l.3,18.38a2,2,0,0,1-.76,1.61,2.07,2.07,0,0,1-1.74.42l-4.79-1A11.38,11.38,0,0,1,538.85,132.19Zm-3.38-19.68.21.18a2,2,0,0,1,.28,2.82c-1.76,2.2-3.55,7.24-2.37,10.12.56,1.35,1.79,2.13,3.78,2.38,7.17.91,8.76-4.95,8.92-5.62a2.06,2.06,0,0,1,2.44-1.55l4,.88-.2-12L549,112.12a2,2,0,0,1-2.12.11c-1.26-.66-5.33-2.28-7.51-1.1A14.06,14.06,0,0,1,535.47,112.51Z"/>
            </g>
            <g>
              <path class="cls-10" d="M562.08,107.39a12.27,12.27,0,0,1,4.82-2.14"/>
              <path class="cls-9" d="M562.08,109.43a2.06,2.06,0,0,1-1.61-.78,2,2,0,0,1,.33-2.86,14.24,14.24,0,0,1,5.74-2.55,2,2,0,0,1,2.38,1.66,2,2,0,0,1-1.66,2.36,10.37,10.37,0,0,0-3.9,1.73A2.11,2.11,0,0,1,562.08,109.43Z"/>
            </g>
          </g>
          <g>
            <path class="cls-8" d="M450.86,60.64c-2.43.33-9.23,10.17-13.29,16.37a5.17,5.17,0,0,0,2.1,7.51c4.09,2,9.42,4.56,11.62,5.78A90.31,90.31,0,0,1,450.86,60.64Z"/>
            <path class="cls-9" d="M451.29,92.34a2,2,0,0,1-1-.26c-1.71-.94-5.69-2.92-11.52-5.73a7.21,7.21,0,0,1-2.93-10.45c11-16.77,13.52-17.12,14.74-17.28a2.06,2.06,0,0,1,1.76.6,2,2,0,0,1,.55,1.75,88.64,88.64,0,0,0,.43,29,2,2,0,0,1-2,2.38Zm-3.16-26.58a143.13,143.13,0,0,0-8.84,12.36,3.11,3.11,0,0,0-.4,2.57,3.14,3.14,0,0,0,1.68,2c2.56,1.23,5.61,2.71,8.09,3.95A95,95,0,0,1,448.13,65.76Z"/>
          </g>
          <g>
            <path class="cls-8" d="M552.14,60.64c2.43.33,9.23,10.17,13.29,16.37a5.17,5.17,0,0,1-2.1,7.51c-4.09,2-9.42,4.56-11.62,5.78A90.31,90.31,0,0,0,552.14,60.64Z"/>
            <path class="cls-9" d="M551.71,92.34a2,2,0,0,1-2-2.38,88.65,88.65,0,0,0,.43-29,2,2,0,0,1,.55-1.75,2.06,2.06,0,0,1,1.76-.6c1.22.16,3.75.51,14.74,17.28a7.21,7.21,0,0,1-2.93,10.45c-5.83,2.81-9.81,4.79-11.52,5.73A2,2,0,0,1,551.71,92.34Zm3.16-26.58a95,95,0,0,1-.53,20.87c2.48-1.24,5.53-2.72,8.09-3.95a3.14,3.14,0,0,0,1.28-4.56A143.13,143.13,0,0,0,554.87,65.76Z"/>
          </g>
        </g>
      </g>
    </g>
  </g>
</svg>
