<svg id="Layer_1" data-name="Layer 1" xmlns="http://www.w3.org/2000/svg" viewBox="0 0 378.1 98.77">
  <defs>
    <style>
      .cls-1 {
        font-size: 61.06px;
        font-family: Ubuntu-Bold, Ubuntu;
        font-weight: 700;
      }

      .cls-1, .cls-5 {
        fill: #616160;
      }

      .cls-2 {
        letter-spacing: 0.02em;
      }

      .cls-3 {
        letter-spacing: -0.01em;
      }

      .cls-4 {
        letter-spacing: 0em;
      }
    </style>
  </defs>
  <text class="cls-1" transform="translate(109.93 76.28)">M<tspan class="cls-2" x="54.77" y="0">A</tspan><tspan class="cls-3" x="100.26" y="0">Z</tspan><tspan class="cls-4" x="136.78" y="0">ONE</tspan></text>
  <path class="cls-5" d="M1116.51,931.27,1075,859.36a13.43,13.43,0,0,0-18.34-4.91,13.25,13.25,0,0,0-4.92,4.94l-3.87,6.7,24.52,42.47h-25.63l-19,32.87a6.9,6.9,0,0,1-11.94-6.9l32-55.43-3.75-6.49-33.91,58.66a13.44,13.44,0,0,0,4.92,18.34,13.28,13.28,0,0,0,6.69,1.79,13.43,13.43,0,0,0,11.65-6.7l17.09-29.61h33.17l-26.3-45.57a6.89,6.89,0,1,1,11.94-6.89l41.52,71.9a6.9,6.9,0,1,1-11.95,6.9l-7.24-12.54h-41.54l-3.77,6.52h41.54l5.36,9.29a13.43,13.43,0,1,0,23.25-13.43Z" transform="translate(-1008.38 -852.65)"/>
</svg>
