<?xml version="1.0" encoding="utf-8"?>
<!-- Generator: Adobe Illustrator 24.1.1, SVG Export Plug-In . SVG Version: 6.00 Build 0)  -->
<svg version="1.1" id="Layer_1" xmlns="http://www.w3.org/2000/svg" xmlns:xlink="http://www.w3.org/1999/xlink" x="0px" y="0px"
	 viewBox="0 0 168 168" style="enable-background:new 0 0 168 168;" xml:space="preserve">
<style type="text/css">
	.st0{opacity:0.5;fill:#FFFFFF;enable-background:new    ;}
	.st1{fill:#FFFFFF;}
	.st2{fill:none;stroke:#FFFFFF;stroke-width:2;stroke-miterlimit:10;}
	.st3{fill:none;stroke:#FFFFFF;stroke-width:2;stroke-miterlimit:10;stroke-dasharray:10,5;}
	.st4{fill:none;stroke:#FFFFFF;stroke-width:2;stroke-miterlimit:10;stroke-dasharray:11.8,5.9;}
	.st5{fill:#FFFFFF;stroke:#FFFFFF;stroke-width:2;stroke-miterlimit:10;}
	.st6{fill:url(#SVGID_1_);}
	.st7{fill:none;stroke:#094677;stroke-miterlimit:10;}
</style>
<g>
	<circle class="st0" cx="107.1" cy="20.2" r="20.2"/>
	<circle class="st1" cx="107.1" cy="20.2" r="5.8"/>
	<circle class="st1" cx="11.2" cy="43.1" r="11.2"/>
	<circle class="st1" cx="157" cy="88.8" r="11.2"/>
	<path class="st0" d="M68.3,71H38.8c1.9-8.2,10.1-13.2,18.3-11.3C62.7,61,67.1,65.4,68.3,71L68.3,71z"/>
	<path class="st1" d="M148.2,144.2h-20.3c1.3-5.6,6.8-9.1,12.4-7.9C144.2,137.2,147.3,140.3,148.2,144.2z M86.2,118.9V92.7l10.5,13
		L86.3,119L86.2,118.9z"/>
	<path class="st0" d="M145.1,150.6h-38.9l19.5-15.5L145.1,150.6z"/>
	<circle class="st1" cx="11.2" cy="111.6" r="5.8"/>
	<circle class="st0" cx="11.2" cy="111.6" r="11.2"/>
</g>
<g>
	<circle class="st2" cx="107.1" cy="20.2" r="13.5"/>
	<path class="st3" d="M107,20.2h61"/>
	<path class="st2" d="M157,0l-4.6,1.9"/>
	<path class="st4" d="M146.9,4.1l-13.7,5.5"/>
	<path class="st2" d="M130.4,10.8l-4.6,1.8 M125.8,27.8l4.6,1.9"/>
	<path class="st4" d="M136,32l13.7,5.5"/>
	<path class="st5" d="M152.4,38.6l4.6,1.9 M86.8,20.2H34c-12.6-0.1-22.8,10.1-22.9,22.7c0,0.1,0,0.1,0,0.2
		c0,12.6,10.2,22.8,22.8,22.8c0,0,0.1,0,0.1,0h100.2c12.6,0,22.8,10.2,22.8,22.8c0.1,12.6-10.1,22.8-22.7,22.9c0,0-0.1,0-0.1,0H22.3
		"/>
</g>
<path d="M24.8,139h-0.2c0,0,0.2,0,0,0h-1.3H24.8z"/>
<linearGradient id="SVGID_1_" gradientUnits="userSpaceOnUse" x1="18.5628" y1="58.4" x2="18.5628" y2="2" gradientTransform="matrix(1 0 0 -1 0 170)">
	<stop  offset="0" style="stop-color:#AD4936"/>
	<stop  offset="0.4" style="stop-color:#AD4936;stop-opacity:0.99"/>
	<stop  offset="0.55" style="stop-color:#AD4936;stop-opacity:0.95"/>
	<stop  offset="0.65" style="stop-color:#AD4936;stop-opacity:0.88"/>
	<stop  offset="0.74" style="stop-color:#AD4936;stop-opacity:0.78"/>
	<stop  offset="0.81" style="stop-color:#AD4936;stop-opacity:0.66"/>
	<stop  offset="0.87" style="stop-color:#AD4936;stop-opacity:0.5"/>
	<stop  offset="0.93" style="stop-color:#AD4936;stop-opacity:0.31"/>
	<stop  offset="0.98" style="stop-color:#AD4936;stop-opacity:0.1"/>
	<stop  offset="1" style="stop-color:#AD4936;stop-opacity:0"/>
</linearGradient>
<path class="st6" d="M36.5,168H1.7c-1-3.8-1.5-7.6-1.7-11.5c0-3.4,1.7-8,2-11.8s0-9,1.9-8.8c1.4,0.2,3.1,2.7,4,5.4l0.8-16.7
	c0.2-3.4,0.6-13,3.4-13s3.2,10.7,3.4,13.5l0.3,5.2c0-0.9,5.3-0.4,6.4,1.2c1,1.4,1,3.2,1.4,4.8c0-1,4.6-1.5,6.2,0.4
	c1,1.1,1.3,3.5,1.5,5.6c0.1-1,4-0.2,5,2.8c1.1,3.5,0.2,10.3,0.8,16.6C37.2,163.8,37,165.9,36.5,168z"/>
<path class="st7" d="M7.7,139l0.1,2.3l-0.1,3.2c-0.2,2.8-1.1,9.9,0.5,15.7 M23.5,135.1v1.2l0.2,1c0.4,1.8,0.2,5.8,1.4,8.6
	 M31.4,145.6l-0.2-4.2 M16.6,146.3c0.3-1.5,0.4-3.1,0.3-4.7L16,129.4"/>
</svg>
