<?xml version="1.0" encoding="utf-8"?>
<!-- Generator: Adobe Illustrator 24.1.1, SVG Export Plug-In . SVG Version: 6.00 Build 0)  -->
<svg version="1.1" id="Layer_1" xmlns="http://www.w3.org/2000/svg" xmlns:xlink="http://www.w3.org/1999/xlink" x="0px" y="0px"
	 viewBox="0 0 470 483" style="enable-background:new 0 0 470 483;" xml:space="preserve">
<style type="text/css">
	.st0{fill:#8ED1FC;}
</style>
<g transform="translate(300,300)">
	<path class="st0" d="M27.3-199.3c23.3,34.2,39.5,60.3,67.5,90.2s67.8,63.6,61.4,89C149.9,5.3,97.5,22.4,67.1,60S28.5,155.7,3,169.9
		c-25.5,14.3-68.3-15.5-114.6-30.3c-46.4-14.8-96.4-14.6-131-37.3c-34.5-22.8-53.6-68.5-48.3-110.4c5.3-41.9,35-80,56-120.6
		c21-40.5,33.2-83.5,61.4-115.4c28.2-32,72.3-52.9,109.7-42.3C-26.5-275.7,3.9-233.4,27.3-199.3z"/>
</g>
</svg>
