<?xml version="1.0" encoding="utf-8"?>
<!-- Generator: Adobe Illustrator 24.1.1, SVG Export Plug-In . SVG Version: 6.00 Build 0)  -->
<svg version="1.1" id="Layer_1" xmlns="http://www.w3.org/2000/svg" xmlns:xlink="http://www.w3.org/1999/xlink" x="0px" y="0px"
	 viewBox="0 0 1190 1489" style="enable-background:new 0 0 1190 1489;" xml:space="preserve">
<style type="text/css">
	.st0{fill:#4B3EFF;}
	.st1{fill:#5660FF;}
	.st2{fill:#596FFF;}
	.st3{fill:#516BFF;}
	.st4{fill:#4866FF;}
	.st5{fill:#3E62FF;}
	.st6{fill:#325DFF;}
	.st7{fill:#2159FF;}
	.st8{fill:#FFFFFF;}
</style>
<g>
	<path class="st0" d="M-0.1,982.4c36.4-12.5,74-20.7,112.1-24.9c83.2-9.4,168.1-1.8,249.4,14.4c2.5,0.5,5.1,1,7.6,1.5
		c86.9,17.8,172.3,43.9,258.5,68.6h562.4V447H-0.1V982.4"/>
	<path class="st1" d="M0,447v319.4c41.4-13.7,84.4-20.3,127.5-20.6c76.5-0.6,151.1,16.9,222.6,40.5c2.2,0.7,4.4,1.5,6.6,2.2
		c136.6,46.1,272,108.7,418.3,142.9c138.9,32.5,279.9,25.6,414.9-9.4V447H0z"/>
	<path class="st2" d="M135.2,639.9c73,4.5,142.7,26.2,209.2,53.6c2.1,0.8,4.1,1.7,6.2,2.5C477.7,749.3,605.4,814,745.7,850.6
		c147.9,38.5,300,30.3,444.2-11V447H0v210.6C43.8,643.1,89.7,637.2,135.2,639.9z"/>
	<path class="st3" d="M1190,447H0v101.4c46.3-15.5,95-20.5,142.9-14.3c69.6,9,134.2,35.5,195.8,66.6c1.9,1,3.8,1.9,5.7,2.9
		c117.8,60.3,237.8,127.1,372.1,166C873.1,815,1037,806.1,1190,757.3L1190,447L1190,447z"/>
	<path class="st4" d="M338.3,511.2c108.4,67.5,220.7,136.1,349,177.5c155.1,50.1,320.8,45.2,474.4-3.9c9.5-3,18.9-6.2,28.3-9.6V447
		H214.2c41.6,15.8,80.8,37.6,118.8,61C334.8,509,336.5,510.1,338.3,511.2z"/>
	<path class="st5" d="M1190,447H370.4c87.8,63.8,181.1,122.3,287.7,160.8c142.7,51.5,297.5,55.6,442.5,15.7
		c30.3-8.3,60.3-18.7,89.5-31L1190,447L1190,447z"/>
	<path class="st6" d="M1039.4,562.1c35.1-7.9,69.6-18.8,103.1-32.6c16.1-6.6,32-14,47.5-21.9V447H478.5
		c46.8,31,96.5,58.2,150.3,79.9C758.9,579.5,903,592.8,1039.4,562.1z"/>
	<path class="st7" d="M978.2,500.8c56-9.4,110.7-27.6,161.2-53.8H601.7C719,499.8,851.3,522.1,978.2,500.8z"/>
	<path class="st8" d="M663.2,1063.8c0,0-13.8,0-30.7,0c-17,0-30.7,0-30.7,0s13.8,0,30.7,0C649.5,1063.8,663.2,1063.8,663.2,1063.8z"
		/>
</g>
</svg>
