<?xml version="1.0" encoding="utf-8"?>
<!-- Generator: Adobe Illustrator 24.1.1, SVG Export Plug-In . SVG Version: 6.00 Build 0)  -->
<svg version="1.1" id="Layer_1" xmlns="http://www.w3.org/2000/svg" xmlns:xlink="http://www.w3.org/1999/xlink" x="0px" y="0px"
	 viewBox="0 0 1600 900" style="enable-background:new 0 0 1600 900;" xml:space="preserve">
<style type="text/css">
	.st0{fill:#7C72A4;}
	.st1{fill:#C59B9B;}
	.st2{fill:#B58080;}
	.st3{fill:#EA8095;}
	.st4{fill:#F8D3DA;}
	.st5{fill:#E97C92;}
	.st6{fill:#E76E85;}
	.st7{fill:#E25671;}
	.st8{fill:#E04765;}
	.st9{fill:#AA3088;}
	.st10{fill:#9D1176;}
	.st11{fill:#9B4A9B;}
	.st12{fill:#B274B2;}
</style>
<rect class="st0" width="1600" height="900"/>
<polygon class="st1" points="957,450 539,900 1396,900 "/>
<polygon class="st2" points="957,450 872.9,900 1396,900 "/>
<polygon class="st3" points="-60,900 398,662 816,900 "/>
<polygon class="st4" points="337,900 398,662 816,900 "/>
<polygon class="st5" points="1203,546 1552,900 876,900 "/>
<polygon class="st6" points="1203,546 1552,900 1162,900 "/>
<polygon class="st7" points="641,695 886,900 367,900 "/>
<polygon class="st8" points="587,900 641,695 886,900 "/>
<polygon class="st9" points="1710,900 1401,632 1096,900 "/>
<polygon class="st10" points="1710,900 1401,632 1365,900 "/>
<polygon class="st11" points="1210,900 971,687 725,900 "/>
<polygon class="st12" points="943,900 1210,900 971,687 "/>
</svg>
