<svg id="Layer_1" data-name="Layer 1" xmlns="http://www.w3.org/2000/svg" viewBox="0 0 126.35 132.4">
  <g>
    <g>
      <polygon points="45.82 98.42 0.92 105.64 22.5 65.61 1.77 25.14 46.5 33.3 78.59 1.07 84.65 46.14 125.22 66.69 84.23 86.39 77.22 131.32 45.82 98.42" style="fill: #ae7bff"/>
      <path d="M164.48,59.17l5.9,43.8.07.52.47.24,39.43,20-39.84,19.14-.48.23-.08.52-6.81,43.67-30.52-32-.36-.38-.52.08L88.1,162l21-38.9.25-.46-.24-.47L88.93,82.84l43.48,7.93.52.1.37-.38,31.18-31.32M165.2,57,132.59,89.79,87.12,81.5l21.08,41.13L86.26,163.32,131.9,156l31.91,33.43,7.13-45.67,41.67-20-41.24-20.89L165.2,57Z" transform="translate(-86.26 -57.03)"/>
    </g>
    <g>
      <polygon points="30.31 52.66 21.11 47.09 31.12 43.17 33.57 32.7 40.39 41.02 51.1 40.11 45.31 49.16 49.48 59.07 39.08 56.36 30.94 63.39 30.31 52.66" style="fill: #fff"/>
      <path d="M120.09,90.83l6,7.33.33.4.52,0,9.45-.8-5.11,8-.29.44.21.49,3.67,8.73L125.72,113l-.51-.14-.4.35-7.17,6.19-.56-9.46,0-.52-.45-.27-8.11-4.91,8.83-3.45.49-.19.12-.51,2.16-9.23m-.52-2.2L117,99.83,106.24,104l9.84,6,.68,11.49,8.7-7.53,11.13,2.91-4.46-10.6,6.2-9.69-11.46,1-7.3-8.89Z" transform="translate(-86.26 -57.03)"/>
    </g>
    <g>
      <polygon points="49.92 84.41 39.59 78.86 50.28 74.03 52.38 62.49 60.26 71.17 71.89 69.6 66.07 79.78 71.16 90.35 59.68 87.97 51.2 96.07 49.92 84.41" style="fill: #fff"/>
      <path d="M138.94,120.6l7,7.74.35.39.52-.07,10.36-1.41L152,136.33l-.26.46.23.47,4.54,9.42-10.24-2.12-.51-.11-.38.36L137.84,152l-1.14-10.39-.06-.53-.46-.25-9.21-5,9.54-4.3.47-.21.1-.52,1.86-10.29m-.62-2.17-2.23,12.28-11.37,5.13,11,5.91,1.36,12.41,9-8.63,12.22,2.54-5.42-11.24L159.08,126l-12.36,1.68-8.4-9.24Z" transform="translate(-86.26 -57.03)"/>
    </g>
    <g>
      <polygon points="69.77 42.64 62.73 41.13 68.21 36.46 67.46 29.3 73.6 33.06 80.19 30.14 78.5 37.14 83.31 42.5 76.13 43.06 72.52 49.3 69.77 42.64" style="fill: #fff"/>
      <path d="M154.32,87.28l5.05,3.1.45.27.48-.21L165.72,88l-1.39,5.77-.12.51.35.39,4,4.41-5.91.46-.52,0-.26.46-3,5.13-2.27-5.48-.2-.49-.51-.11-5.8-1.24L154.59,94l.4-.34-.06-.53-.61-5.89m-1.2-1.91.82,7.91-6.05,5.16,7.78,1.66,3,7.35,4-6.88,7.93-.62L165.31,94l1.86-7.73-7.27,3.22-6.78-4.15Z" transform="translate(-86.26 -57.03)"/>
    </g>
    <g>
      <polygon points="26.59 84.99 19.59 81.7 26.46 78.14 27.43 70.47 32.94 75.9 40.53 74.45 37.07 81.36 40.8 88.14 33.15 86.98 27.85 92.62 26.59 84.99" style="fill: #fff"/>
      <path d="M114.06,128.56l4.6,4.54.37.37.52-.1,6.34-1.21-2.9,5.77-.23.47.25.46,3.12,5.66-6.39-1-.52-.08-.36.38-4.42,4.71-1-6.37-.09-.52-.47-.22L107,138.7l5.74-3,.47-.24.06-.52.81-6.41m-.74-2.14-1.06,8.42-7.54,3.9,7.68,3.61,1.38,8.38,5.81-6.19,8.39,1.27-4.09-7.43,3.8-7.59-8.33,1.6-6-6Z" transform="translate(-86.26 -57.03)"/>
    </g>
    <g>
      <polygon points="80.27 67.68 73.89 63.25 81.29 60.88 83.52 53.44 88.07 59.74 95.83 59.57 91.24 65.84 93.81 73.17 86.43 70.74 80.25 75.44 80.27 67.68" style="fill: #fff"/>
      <path d="M170,111.58l3.8,5.26.3.43h.53l6.49-.14-3.84,5.23-.31.43.18.49,2.14,6.13-6.17-2-.5-.16-.42.32L167,131.46l0-6.49v-.53l-.43-.3-5.33-3.7,6.18-2,.5-.16.15-.5,1.87-6.22m-.37-2.23-2.46,8.16-8.11,2.6,7,4.85,0,8.52,6.78-5.16,8.09,2.67-2.81-8,5-6.88-8.51.19-5-6.91Z" transform="translate(-86.26 -57.03)"/>
    </g>
    <g>
      <polygon points="60.47 103.42 56.75 100.47 61.35 99.31 63.01 94.86 65.54 98.88 70.28 99.08 67.24 102.72 68.52 107.3 64.11 105.53 60.15 108.16 60.47 103.42" style="fill: #fff"/>
      <path d="M149.38,153l1.85,2.94.28.44.53,0,3.47.14-2.23,2.67-.33.4.14.51.93,3.35-3.22-1.3-.49-.19-.44.29L147,164.21l.23-3.47,0-.52-.41-.33-2.72-2.16,3.37-.85.51-.12.18-.5,1.21-3.25m-.23-2.25-1.91,5.16-5.34,1.34,4.31,3.42-.37,5.49,4.58-3,5.11,2-1.48-5.3,3.53-4.22-5.5-.23-2.93-4.66Z" transform="translate(-86.26 -57.03)"/>
    </g>
  </g>
</svg>
