<?xml version="1.0" encoding="utf-8"?>
<!-- Generator: Adobe Illustrator 24.1.1, SVG Export Plug-In . SVG Version: 6.00 Build 0)  -->
<svg version="1.1" id="Layer_1" xmlns="http://www.w3.org/2000/svg" xmlns:xlink="http://www.w3.org/1999/xlink" x="0px" y="0px"
	 viewBox="0 0 1440 234.1" style="enable-background:new 0 0 1440 234.1;" xml:space="preserve">
<style type="text/css">
	.st0{fill:#0099FF;}
</style>
<path class="st0" d="M0,96l48,21.3C96,139,192,181,288,208s192,37,288,10.7c96-26.7,192-90.7,288-112c96-21.7,192,0.3,288,21.3
	s192,43,240,53.3l48,10.7V0h-48c-48,0-144,0-240,0S960,0,864,0S672,0,576,0S384,0,288,0S96,0,48,0H0V96z"/>
</svg>
